<svg width="24.000000" height="24.000000" viewBox="0 0 24 24" fill="none" xmlns="http://www.w3.org/2000/svg" xmlns:xlink="http://www.w3.org/1999/xlink">
	<desc>
			Created with Pixso.
	</desc>
	<defs>
		<clipPath id="clip1_3896">
			<rect id="transfer" width="24.000000" height="24.000000" fill="white" fill-opacity="0"/>
		</clipPath>
	</defs>
	<rect id="transfer" width="24.000000" height="24.000000" fill="#FFFFFF" fill-opacity="0"/>
	<g clip-path="url(#clip1_3896)">
		<path id="Vector" d="M17.53 20.53C17.38 20.67 17.19 20.75 17 20.75C16.8 20.75 16.61 20.67 16.46 20.53L11.46 15.53C11.25 15.31 11.19 14.99 11.3 14.71C11.42 14.43 11.69 14.25 12 14.25L16.25 14.25L16.25 4C16.25 3.58 16.58 3.25 17 3.25C17.41 3.25 17.75 3.58 17.75 4L17.75 14.25L22 14.25C22.3 14.25 22.57 14.43 22.69 14.71C22.8 14.99 22.74 15.31 22.53 15.53L17.53 20.53Z" fill="#000000" fill-opacity="1.000000" fill-rule="nonzero"/>
		<path id="Vector" d="M7.53 3.46C7.38 3.32 7.19 3.25 7 3.25C6.8 3.25 6.61 3.32 6.46 3.46L1.46 8.46C1.25 8.68 1.19 9 1.3 9.28C1.42 9.56 1.69 9.75 2 9.75L6.25 9.75L6.25 20C6.25 20.41 6.58 20.75 7 20.75C7.41 20.75 7.75 20.41 7.75 20L7.75 9.75L12 9.75C12.3 9.75 12.57 9.56 12.69 9.28C12.8 9 12.74 8.68 12.53 8.46L7.53 3.46Z" fill="#000000" fill-opacity="1.000000" fill-rule="nonzero"/>
	</g>
</svg>
