<svg width="24.000000" height="24.000000" viewBox="0 0 24 24" fill="none" xmlns="http://www.w3.org/2000/svg" xmlns:xlink="http://www.w3.org/1999/xlink">
	<desc>
			Created with Pixso.
	</desc>
	<defs>
		<clipPath id="clip1_3841">
			<rect id="credit-cards" width="24.000000" height="24.000000" fill="white" fill-opacity="0"/>
		</clipPath>
	</defs>
	<rect id="credit-cards" width="24.000000" height="24.000000" fill="#FFFFFF" fill-opacity="0"/>
	<g clip-path="url(#clip1_3841)">
		<path id="Vector" d="M19.6 6.76L18.23 4.38L14.09 6.76L19.6 6.76Z" fill="#000000" fill-opacity="1.000000" fill-rule="nonzero"/>
		<path id="Vector" d="M11.09 6.76L17.48 3.08L16.85 2C16.3 1.04 15.08 0.71 14.12 1.26L4.59 6.76L11.09 6.76Z" fill="#000000" fill-opacity="1.000000" fill-rule="nonzero"/>
		<path id="Vector" d="M4 8C2.89 8 2 8.89 2 10L2 12.25L22 12.25L22 10C22 8.89 21.1 8 20 8L4 8Z" fill="#000000" fill-opacity="1.000000" fill-rule="nonzero"/>
		<path id="Vector" d="M22 13.75L2 13.75L2 20C2 21.1 2.89 22 4 22L20 22C21.1 22 22 21.1 22 20L22 13.75Z" fill="#000000" fill-opacity="1.000000" fill-rule="nonzero"/>
	</g>
</svg>
